<svg width="113" height="46" viewBox="0 0 113 46" fill="none" xmlns="http://www.w3.org/2000/svg">
<g clip-path="url(#clip0_25_119)">
<path d="M16.3768 22.2449L17.1961 27.309H15.5585L16.3768 22.2449ZM40.5333 20.5423L41.7187 26.3386H39.284L40.5333 20.5423ZM110.5 22.2226C111.535 22.2226 112.418 23.192 113 24.0114V19.6155C112.052 18.7971 111.082 18.3226 109.445 18.3226C106.04 18.3226 103.95 21.7916 103.95 25.9502C103.95 30.6483 105.975 33.4491 110.069 33.4491C111.32 33.4491 112.159 33.2341 113 32.7595V28.8159C112.31 29.398 111.556 29.6779 110.587 29.6779C108.798 29.6779 107.807 28.0615 107.807 25.9715C107.807 24.0327 108.54 22.2226 110.5 22.2226ZM85.634 29.183C84.3846 29.183 83.8239 26.9419 83.8239 23.4942C83.8239 20.0891 84.3846 17.848 85.634 17.848C86.8843 17.848 87.4653 20.0891 87.4653 23.4942C87.4653 26.9419 86.8833 29.183 85.634 29.183ZM4.15958 33.0404V21.9214C4.65543 21.7277 5.0864 21.6202 6.01225 21.4904V33.0404H10.1709V16.8147C6.39964 17.4616 2.90928 18.1289 0 19.3792V33.0414H4.15958V33.0404ZM53.8934 29.1617C54.7553 28.1709 55.1437 26.2098 55.1437 21.5979V15.9518H56.9537V29.1607H53.8934V29.1617ZM10.5379 33.0404H14.6326L15.021 30.6919H17.7356L18.1239 33.0404H22.4336L18.7922 15.0472C17.3269 15.1547 15.5594 15.4569 14.375 15.7803L10.5379 33.0404ZM97.0764 22.7398V15.6506C96.0634 15.4346 93.9308 15.0259 92.8742 14.9174V33.0394H97.0764V26.6185H99.1664V33.0394H103.369V16.9222C102.054 16.5561 100.459 16.2539 99.1664 16.0602V22.7398H97.0764ZM85.5265 13.5819C81.4754 13.5819 79.213 17.5894 79.213 23.4942C79.213 29.9151 81.5189 33.4491 85.634 33.4491C89.6638 33.4491 92.0772 29.5055 92.0772 23.4942C92.0772 18.0427 90.0085 13.5819 85.5265 13.5819ZM26.936 33.0404V17.9129L28.7248 17.7618V33.0394H32.927V13.3233C29.7378 13.4308 25.9889 13.7543 22.7561 14.379V33.0394H26.936V33.0404ZM33.2282 33.0404H37.84L38.4434 30.2173H42.4945L43.0765 33.0404H47.7746L42.7753 12.4614C41.6335 12.4614 39.5213 12.6125 38.487 12.7413L33.2282 33.0404ZM80.2038 13.1945C78.6523 12.9786 77.3594 12.8284 75.8079 12.7636L73.6317 21.1679V12.6348C72.4463 12.5273 70.9171 12.4188 69.6019 12.3975V21.0169L67.727 12.3113C66.283 12.2251 64.8613 12.1825 63.396 12.1602L65.8743 22.2449L63.1161 33.0404H67.512L69.6019 24.4646V33.0404H73.6317V24.5721L75.5716 33.0404H79.9461L77.2093 22.6323L80.2038 13.1945ZM61.2198 12.1166C58.1382 12.0091 54.6904 11.9655 51.631 12.0304V21.6628C51.631 25.1319 51.5661 26.2098 51.3937 27.3942C51.1787 28.7297 50.9415 29.1607 50.2306 29.1607H49.4762V33.0394H62.5776V29.1607H61.2198V12.1166V12.1166Z" fill="#DA291C"/>
</g>
<defs>
<clipPath id="clip0_25_119">
<rect width="113" height="46" fill="white"/>
</clipPath>
</defs>
</svg>
