<?xml version="1.0" encoding="UTF-8"?>
<svg width="36px" height="40px" viewBox="0 0 36 40" version="1.1" xmlns="http://www.w3.org/2000/svg" xmlns:xlink="http://www.w3.org/1999/xlink">
    <!-- Generator: Sketch 64 (93537) - https://sketch.com -->
    <title>Path</title>
    <desc>Created with Sketch.</desc>
    <g id="Page-1" stroke="none" stroke-width="1" fill="none" fill-rule="evenodd">
        <g id="pizza" transform="translate(-7.000000, 0.000000)">
            <polygon id="Path" points="7 0 43 0 43 40 7 40"></polygon>
            <ellipse id="Oval" fill-opacity="0.15" fill="#844C22" fill-rule="nonzero" cx="21" cy="37" rx="12" ry="2"></ellipse>
            <path d="M12.933,1.714 C17.696,1.384 23.126,2.98 29.223,6.5 C35.319,10.02 39.499,13.78 41.762,17.781 L41.76,18.277 C41.7563494,19.0726435 41.3589415,19.8148498 40.6987733,20.2589666 C40.038605,20.7030835 39.2013533,20.7914732 38.463,20.495 C35.686,16.198 31.939,12.687 27.223,9.965 C22.506,7.241 17.509,5.895 12.233,5.928 L12.208,5.903 C11.623808,5.29898763 11.3631394,4.4523359 11.5064424,3.62434106 C11.6497454,2.79634623 12.1797929,2.08654559 12.933,1.714 Z" id="Path" stroke="#844C22" fill="#F6E7B5" fill-rule="nonzero" stroke-linecap="round" stroke-linejoin="round"></path>
            <path d="M12.208,3.135 C17.514,3.295 22.835,4.915 28.169,7.995 C33.504,11.075 37.667,14.987 40.659,19.73 C40.1918412,20.1208727 39.6021131,20.335 38.993,20.335 L38.886,20.335 C35.198,15.425 31.291,11.777 27.164,9.395 C23.037,7.012 18.052,5.645 12.208,5.295 L12.174,5.17 C11.9932523,4.50202687 12.005039,3.79656227 12.208,3.135 L12.208,3.135 Z" id="Path" fill="#FFB46B" fill-rule="nonzero"></path>
            <path d="M9.405,37.782 L12.322,5.772 C17.925,6.067 22.892,7.464 27.222,9.964 C31.552,12.464 35.246,16.067 38.302,20.773 L11.535,39.012 L9.406,37.782 L9.405,37.782 Z" id="Path" stroke="#844C22" fill="#F83825" fill-rule="nonzero" stroke-linecap="round" stroke-linejoin="round"></path>
            <path d="M9.353,37.752 L11.85,10.905 C17.576,7.752 22.7,7.438 27.221,9.965 C31.743,12.49 34.004,17.055 34.004,23.66 L11.567,39.03 L9.353,37.752 Z" id="Path" stroke="#844C22" fill="#FFFFFF" fill-rule="nonzero" stroke-linecap="round" stroke-linejoin="round"></path>
            <g id="Group" transform="translate(18.722645, 24.685429) rotate(-150.000000) translate(-18.722645, -24.685429) translate(6.722645, 8.685429)" fill-rule="nonzero">
                <path d="M12.423,0.484 L23.318,23.961 C20.248,28.86 16.428,31.309 11.858,31.309 C7.288,31.309 3.467,28.654 0.395,23.345 L11.308,0.495 L12.423,0.485 L12.423,0.484 Z" id="b" fill="#F6E7B5"></path>
                <path d="M12.395,0.476 L11.297,0.473 L10.299,2.622 C9.837,9.009 9.009,12.692 7.812,13.668 C6.017,15.132 2.982,18.368 3.979,20.08 C4.976,21.79 10.174,22.82 11.119,19.433 C12.063,16.046 12.132,7.889 13.702,7.519 C15.273,7.149 19.055,14.559 18.635,15.905 C18.215,17.251 16.892,22.667 18.422,23.232 C19.442,23.608 20.672,22.752 22.114,20.662 L12.394,0.476 L12.395,0.476 Z" id="Path" fill="#FFB46B"></path>
                <path d="M11.774,24.706 C13.27,25.433 13.684,28.015 11.394,29.337 C9.104,30.659 6.271,30.331 4.461,27.197 C3.254,25.107 1.997,23.613 0.691,22.715 L2.187,19.56 C3.827,23.424 5.162,25.637 6.191,26.197 C7.734,27.039 10.278,23.98 11.774,24.707 L11.774,24.706 Z" id="Path" fill="#FFB46B"></path>
            </g>
            <g id="Group" transform="translate(17.210156, 16.307625) rotate(-150.000000) translate(-17.210156, -16.307625) translate(13.710156, 12.807625)" fill-rule="nonzero">
                <g>
                    <circle id="Oval" stroke="#844C22" fill="#E2475A" cx="3.5" cy="3.5" r="3.5"></circle>
                    <path d="M3.133,6.457 C4.23,6.781 6.363,5.815 6.497,3.741 C6.56880018,2.84406176 6.23420921,1.96225892 5.5854791,1.33871845 C4.93674899,0.715177981 4.0423933,0.41575311 3.149,0.523 C4.945,1.193 5.796,2.263 5.703,3.731 C5.61,5.199 4.753,6.108 3.133,6.457 Z" id="Path" fill="#EE8E9A"></path>
                </g>
                <circle id="Oval" fill="#EE8E9A" cx="2.5" cy="2.5" r="1"></circle>
                <circle id="Oval" fill="#EE8E9A" cx="4.5" cy="3.5" r="1"></circle>
                <circle id="Oval" fill="#EE8E9A" cx="2.5" cy="4.5" r="1"></circle>
            </g>
            <g id="Group" transform="translate(17.208764, 26.307252) rotate(-150.000000) translate(-17.208764, -26.307252) translate(13.708764, 22.807252)" fill-rule="nonzero">
                <g>
                    <circle id="Oval" stroke="#844C22" fill="#E2475A" cx="3.5" cy="3.5" r="3.5"></circle>
                    <path d="M3.133,6.457 C4.23,6.781 6.363,5.815 6.497,3.741 C6.56880018,2.84406176 6.23420921,1.96225892 5.5854791,1.33871845 C4.93674899,0.715177981 4.0423933,0.41575311 3.149,0.523 C4.945,1.193 5.796,2.263 5.703,3.731 C5.61,5.199 4.753,6.108 3.133,6.457 Z" id="Path" fill="#EE8E9A"></path>
                </g>
                <circle id="Oval" fill="#EE8E9A" cx="2.5" cy="2.5" r="1"></circle>
                <circle id="Oval" fill="#EE8E9A" cx="4.5" cy="3.5" r="1"></circle>
                <circle id="Oval" fill="#EE8E9A" cx="2.5" cy="4.5" r="1"></circle>
            </g>
            <g id="Group" transform="translate(26.208689, 22.306775) rotate(-150.000000) translate(-26.208689, -22.306775) translate(22.708689, 18.806775)" fill-rule="nonzero">
                <g>
                    <circle id="Oval" stroke="#844C22" fill="#E2475A" cx="3.5" cy="3.5" r="3.5"></circle>
                    <path d="M3.133,6.457 C4.23,6.781 6.363,5.815 6.497,3.741 C6.56880018,2.84406176 6.23420921,1.96225892 5.5854791,1.33871845 C4.93674899,0.715177981 4.0423933,0.41575311 3.149,0.523 C4.945,1.193 5.796,2.263 5.703,3.731 C5.61,5.199 4.753,6.108 3.133,6.457 Z" id="Path" fill="#EE8E9A"></path>
                </g>
                <circle id="Oval" fill="#EE8E9A" cx="2.5" cy="2.5" r="1"></circle>
                <circle id="Oval" fill="#EE8E9A" cx="4.5" cy="3.5" r="1"></circle>
                <circle id="Oval" fill="#EE8E9A" cx="2.5" cy="4.5" r="1"></circle>
            </g>
        </g>
    </g>
</svg>