<?xml version="1.0" encoding="UTF-8"?>
<svg width="32px" height="34px" viewBox="0 0 32 34" version="1.1" xmlns="http://www.w3.org/2000/svg" xmlns:xlink="http://www.w3.org/1999/xlink">
    <!-- Generator: Sketch 64 (93537) - https://sketch.com -->
    <title>snacks</title>
    <desc>Created with Sketch.</desc>
    <g id="Page-1" stroke="none" stroke-width="1" fill="none" fill-rule="evenodd">
        <g id="snacks">
            <polygon id="Path" points="0 0 32 0 32 34 0 34"></polygon>
            <path d="M15.3057941,34 C23.6885588,34 31,33.1346317 31,32.5004234 C31,31.8662151 23.6876471,31 15.3057941,31 C6.92211765,31 0,31.4572396 0,32.5004234 C0,33.5436071 6.92211765,34 15.3057941,34 Z" id="Path" fill-opacity="0.15" fill="#844C22" fill-rule="nonzero"></path>
            <path d="M5.92459162,1 L12.0607251,1 C12.5281288,1 12.9221724,1.35914636 12.979663,1.83709831 L15.9930751,26.9290486 C16.0254601,27.2005231 15.9432628,27.473269 15.7673366,27.678091 C15.5914103,27.882913 15.3386611,28 15.0732109,28 L9.04731293,28 C8.5814644,28 8.18800367,27.6437322 8.12837507,27.1676741 L5.00750645,2.07572383 C4.97373905,1.80398038 5.05492009,1.53038723 5.23039278,1.32456103 C5.40586547,1.11873483 5.65871086,1.00052121 5.92459162,1 Z" id="Path" stroke="#844C22" fill="#FFFFFF" fill-rule="nonzero"></path>
            <path d="M28.1172632,2 L23.1406618,2 C22.7049199,1.99970604 22.3342244,2.34606762 22.2679917,2.81538479 L19.010259,25.8923076 C18.9711369,26.1695219 19.0450387,26.4515322 19.2125966,26.6644311 C19.3801546,26.8773301 19.6246645,27 19.8820466,27 L24.7439392,27 C25.1779163,27 25.5475925,26.6564696 25.6157268,26.189423 L28.9890509,3.11250018 C29.0296013,2.83453612 28.9563549,2.55116724 28.7886306,2.33713191 C28.6209062,2.12309658 28.3755459,2 28.1172632,2 Z" id="Path" stroke="#844C22" fill="#F6E7B5" fill-rule="nonzero"></path>
            <path d="M28.0983432,2 L27.5344743,2 C27.1517657,2 26.8107681,2.25755908 26.6837088,2.64230769 L19.051179,25.7192308 C18.9540842,26.0132432 18.9967317,26.3391761 19.1655958,26.5936594 C19.33446,26.8481427 19.6085889,26.9996013 19.9010423,27 L24.6492697,27 C25.0926503,26.9997171 25.4701208,26.6561102 25.5397315,26.1894231 L28.988805,3.1125 C29.0302413,2.83470181 28.9554651,2.55149627 28.7841771,2.33749735 C28.6128891,2.12349843 28.3622681,2 28.0983432,2 Z" id="Path" fill="#FBC889" fill-rule="nonzero"></path>
            <path d="M28.1172632,2 L23.1406618,2 C22.7049199,1.99970604 22.3342244,2.34606762 22.2679917,2.81538479 L19.010259,25.8923076 C18.9711369,26.1695219 19.0450387,26.4515322 19.2125966,26.6644311 C19.3801546,26.8773301 19.6246645,27 19.8820466,27 L24.7439392,27 C25.1779163,27 25.5475925,26.6564696 25.6157268,26.189423 L28.9890509,3.11250018 C29.0296013,2.83453612 28.9563549,2.55116724 28.7886306,2.33713191 C28.6209062,2.12309658 28.3755459,2 28.1172632,2 Z" id="Path" stroke="#844C22"></path>
            <path d="M5.92459162,1 L12.0607251,1 C12.5281288,1 12.9221724,1.35914636 12.979663,1.83709831 L15.9930751,26.9290486 C16.0254601,27.2005231 15.9432628,27.473269 15.7673366,27.678091 C15.5914103,27.882913 15.3386611,28 15.0732109,28 L9.04731293,28 C8.5814644,28 8.18800367,27.6437322 8.12837507,27.1676741 L5.00750645,2.07572383 C4.97373905,1.80398038 5.05492009,1.53038723 5.23039278,1.32456103 C5.40586547,1.11873483 5.65871086,1.00052121 5.92459162,1 Z" id="Path" stroke="#844C22" fill="#FFFFFF" fill-rule="nonzero"></path>
            <path d="M5.89202863,10 C7.07728286,9.667 7.81740038,9.16700001 8.11326968,8.5 C8.5575179,7.5 8.68368439,6.93200002 9.00176611,5.5 C9.29852391,4.16700004 10.6312685,3.83300004 13,4.5 L12.5655253,1.82000005 C12.4882819,1.34490418 12.1203749,0.999839039 11.6912448,1 L5.88847465,1 C5.63332416,1 5.39049104,1.12347475 5.22182422,1.33895164 C5.0531574,1.55442853 4.97493724,1.84111764 5.0070862,2.12600005 L5.89202863,10 Z" id="Path" stroke="#844C22" fill="#F6E7B5" fill-rule="nonzero" stroke-linecap="round" stroke-linejoin="round"></path>
            <path d="M5.92459162,1 L12.0607251,1 C12.5281288,1 12.9221724,1.35914636 12.979663,1.83709831 L15.9930751,26.9290486 C16.0254601,27.2005231 15.9432628,27.473269 15.7673366,27.678091 C15.5914103,27.882913 15.3386611,28 15.0732109,28 L9.04731293,28 C8.5814644,28 8.18800367,27.6437322 8.12837507,27.1676741 L5.00750645,2.07572383 C4.97373905,1.80398038 5.05492009,1.53038723 5.23039278,1.32456103 C5.40586547,1.11873483 5.65871086,1.00052121 5.92459162,1 Z" id="Path" stroke="#844C22" fill="#FFFFFF" fill-rule="nonzero"></path>
            <path d="M23.1050034,9 L18.0576904,9 C17.6148825,9 17.2385992,9.34044065 17.1726209,9.80094117 L14.009996,31.9185876 C13.9711357,32.1898145 14.0467127,32.4653755 14.2169524,32.6731708 C14.3871922,32.8809661 14.6351544,33.0003183 14.8959606,33 L19.8018771,33 C20.2425998,33 20.6177398,32.6626095 20.6860518,32.2047053 L23.9891781,10.0870588 C24.029724,9.81527422 23.9551703,9.5384386 23.7851305,9.32938118 C23.6150907,9.12032376 23.36659,9 23.1050034,9 Z" id="Path" stroke="#844C22" fill="#F6E7B5" fill-rule="nonzero"></path>
            <path d="M23.0924519,9 L21.1938709,9 C20.7902501,8.99975553 20.4347811,9.27494218 20.3209601,9.67576486 L14.0369115,31.7934118 C13.9561268,32.0778961 14.0095874,32.3851515 14.1811831,32.6225885 C14.3527789,32.8600255 14.6224427,33 14.908913,33 L19.7353824,33 C20.1828367,32.9995764 20.5634886,32.6622581 20.6328438,32.2047059 L23.9890041,10.087059 C24.0301523,9.81559893 23.9546336,9.53908218 23.7822719,9.33009569 C23.6099102,9.12110919 23.3579207,9.00052614 23.0924519,9 Z" id="Path" fill="#FBC889" fill-rule="nonzero"></path>
            <path d="M23.1050034,9 L18.0576904,9 C17.6148825,9 17.2385992,9.34044065 17.1726209,9.80094117 L14.009996,31.9185876 C13.9711357,32.1898145 14.0467127,32.4653755 14.2169524,32.6731708 C14.3871922,32.8809661 14.6351544,33.0003183 14.8959606,33 L19.8018771,33 C20.2425998,33 20.6177398,32.6626095 20.6860518,32.2047053 L23.9891781,10.0870588 C24.029724,9.81527422 23.9551703,9.5384386 23.7851305,9.32938118 C23.6150907,9.12032376 23.36659,9 23.1050034,9 Z" id="Path" stroke="#844C22"></path>
            <path d="M5.92459162,1 L12.0607251,1 C12.5281288,1 12.9221724,1.35914636 12.979663,1.83709831 L15.9930751,26.9290486 C16.0254601,27.2005231 15.9432628,27.473269 15.7673366,27.678091 C15.5914103,27.882913 15.3386611,28 15.0732109,28 L9.04731293,28 C8.5814644,28 8.18800367,27.6437322 8.12837507,27.1676741 L5.00750645,2.07572383 C4.97373905,1.80398038 5.05492009,1.53038723 5.23039278,1.32456103 C5.40586547,1.11873483 5.65871086,1.00052121 5.92459162,1 Z" id="Path" stroke="#844C22" fill="#F6E7B5" fill-rule="nonzero"></path>
            <path d="M9.8312393,1.35097747 L10.5935542,1.06383372 C10.8708845,0.959232747 11.1826628,0.984168042 11.4384154,1.13140373 C11.694168,1.27863942 11.8652567,1.53168859 11.9020339,1.81711993 L14.9927866,25.9539763 C15.0265007,26.2189707 14.9410029,26.4852135 14.7579597,26.6852348 C14.5749165,26.885256 14.3118956,27 14.0355506,27 L7.96501525,27 C7.69398146,27 7.43543623,26.8899044 7.25260811,26.6965957 C7.06977999,26.5032869 6.97952648,26.2446041 7.00391952,25.9838094 L9.22138739,2.13596137 C9.25411204,1.78372563 9.49030467,1.47970524 9.8312393,1.35097747 L9.8312393,1.35097747 Z" id="Path" fill="#FBC889" fill-rule="nonzero"></path>
            <line x1="3" y1="21.5" x2="30" y2="21.5" id="Path" stroke="#FFFFFF"></line>
            <path d="M5.89242509,10 C7.0782061,9.667 7.81865256,9.167 8.11465336,8.5 C8.55909902,7.5 8.68532158,6.932 9.00354467,5.5 C9.30043437,4.167 10.6319936,3.833 13,4.5 L12.5679988,1.822 C12.4914801,1.34610904 12.1232101,1 11.6933298,1 L5.88886953,1 C5.63360564,1 5.3906646,1.1234747 5.22192281,1.33895159 C5.05318102,1.55442848 4.9749261,1.84111759 5.00708935,2.126 L5.89242509,10 Z" id="Path" stroke="#844C22" fill="#E8404A" fill-rule="nonzero" stroke-linecap="round" stroke-linejoin="round"></path>
            <path d="M6.43728136,10 C7.31446777,9.67635171 7.89867566,9.19184829 8.18990505,8.54648974 C8.62718641,7.5774829 8.75137431,7.02708701 9.06446777,5.63946921 C9.35657171,4.34681409 10.6684158,4.02413481 13,4.67046237 L12.6475512,3.12005142 C12.5884122,2.85928389 12.4341446,2.63746493 12.2216392,2.5076391 C10.8092204,1.64522301 9.60932034,1.88166068 8.62368816,3.21695211 C7.02848576,5.37783737 7.99925037,6.21118325 7.31184408,7.09297947 C7.08533233,7.38368153 6.64805097,7.54453666 6,7.5774829 L6.43728136,10 L6.43728136,10 Z" id="Path" fill="#D2000D" fill-rule="nonzero"></path>
            <path d="M16,27.9920635 C15.9636719,27.9972156 15.9270931,27.9998662 15.890472,28 M15.1059662,27 C15.0707995,27.0046603 15.0354146,27.0069793 15,27.0069444" id="Shape" stroke="#FFFFFF"></path>
            <line x1="5.55" y1="2.852" x2="5.45" y2="2.148" id="Path" stroke="#FFFFFF" opacity="0.969" stroke-linecap="round" stroke-linejoin="round"></line>
            <line x1="3" y1="21.5" x2="30" y2="21.5" id="Path" stroke="#FFFFFF"></line>
            <path d="M1,21 L1.17106329,22.9264615 C1.35198222,24.9683078 2.19078169,26.8902919 3.5551454,28.3892308 L7.75249842,33 L23.5083281,33 L28.1612497,28.2295385 C29.524819,26.8314098 30.414498,25.0213397 30.6992887,23.0658462 L31,21 L1,21 Z" id="Path" stroke="#844C22" stroke-linecap="round" stroke-linejoin="round"></path>
            <path d="M23.2258065,25.9968945 C16.4516129,26.9919365 11.007871,23.8346683 7.41935484,24.0068105 C5.02670968,24.1212403 3.22025806,24.6137861 2,25.487433 C2.39189698,26.7371334 3.02130414,27.8803427 3.84619355,28.8407245 L7.41935484,33 L23.2258065,33 L28.1872258,27.8944396 C29.0755565,26.980597 29.7050941,25.8032851 30,24.5043315 C30,24.8356805 27.7419355,25.3332015 23.2258065,25.9968945 Z" id="Path" stroke="#844C22" fill="#D2142A" fill-rule="nonzero" stroke-linecap="round" stroke-linejoin="round"></path>
            <path d="M5.89242509,10 C7.0782061,9.667 7.81865256,9.167 8.11465336,8.5 C8.55909902,7.5 8.68532158,6.932 9.00354467,5.5 C9.30043437,4.167 10.6319936,3.833 13,4.5 L12.5679988,1.822 C12.4914801,1.34610904 12.1232101,1 11.6933298,1 L5.88886953,1 C5.63360564,1 5.3906646,1.1234747 5.22192281,1.33895159 C5.05318102,1.55442848 4.9749261,1.84111759 5.00708935,2.126 L5.89242509,10 Z" id="Path" stroke="#844C22" stroke-linecap="round" stroke-linejoin="round"></path>
            <line x1="8" y1="32.5" x2="24" y2="32.5" id="Path" stroke="#FFFFFF" opacity="0.698" stroke-linecap="round" stroke-linejoin="round"></line>
            <path d="M1,21 C1,24.866 5.47727273,28 11,28 C16.5227273,28 21,24.866 21,21 L1,21 Z" id="Path" fill="#FFFFFF" fill-rule="nonzero" opacity="0.729"></path>
        </g>
    </g>
</svg>