<?xml version="1.0" encoding="UTF-8"?>
<svg width="36px" height="33px" viewBox="0 0 36 33" version="1.1" xmlns="http://www.w3.org/2000/svg" xmlns:xlink="http://www.w3.org/1999/xlink">
    <!-- Generator: Sketch 64 (93537) - https://sketch.com -->
    <title>Path</title>
    <desc>Created with Sketch.</desc>
    <g id="Page-1" stroke="none" stroke-width="1" fill="none" fill-rule="evenodd">
        <g id="salads" transform="translate(25.000000, -1.000000)">
            <polygon id="Path" points="0 0 38 0 38 36 0 36"></polygon>
        </g>
        <g id="sauces">
            <polygon id="Path" points="0 0 36 0 36 33 0 33"></polygon>
            <path d="M22.6013962,33.7847642 C29.8853962,34.0647642 35.9073962,34.0287642 35.9073962,32.7967642 C35.9073962,31.5647642 29.9613962,31.4907642 22.6833962,31.2117642 C15.4063962,30.9327642 5.17939618,30.3877642 5.17939618,31.6197642 C5.17939618,32.8517642 15.3183962,33.5067642 22.6013962,33.7857642 L22.6013962,33.7847642 Z" id="Path" fill-opacity="0.15" fill="#844C22" fill-rule="nonzero" transform="translate(20.543396, 32.387921) rotate(-2.000000) translate(-20.543396, -32.387921) "></path>
            <line x1="2" y1="19.32" x2="31.25" y2="19.32" id="Path" stroke="#844C22" stroke-linecap="round" stroke-linejoin="round"></line>
            <g id="Group" transform="translate(0.000000, 17.000000)">
                <path d="M1.07,-1.19941621e-07 L34.516,-1.19941621e-07 C34.7833088,-1.19941621e-07 35.0394983,0.106983256 35.2273835,0.297123054 C35.4152686,0.487262853 35.5192077,0.74471047 35.5160721,1.012 C35.476,4.252 34.549,7.082 32.736,9.49999988 C30.736,12.167 28.069,14.333 24.736,15.9999999 L11.236,15.9999999 C7.927,14.964 5.094,12.797 2.736,9.49999988 C0.6,6.517 -0.285,3.64 0.078,0.87 C0.143288297,0.372043695 0.567781936,-0.000244073321 1.07,-1.19941621e-07 Z" id="b" fill="#D4162D" fill-rule="nonzero"></path>
                <path d="M11.312,15.4999999 L24.617,15.4999999 C27.833,13.874 30.404,11.775 32.335,9.2 C34.084,6.868 34.977,4.142 35.015,1.006 L35.015,0.99999994 C35.015,0.723857625 34.7911424,0.49999994 34.515,0.49999994 L1.072,0.49999994 C0.820890968,0.49999994 0.608644148,0.686021847 0.576,0.935 C0.231,3.569 1.078,6.322 3.143,9.209 C5.423,12.397 8.145,14.489 11.313,15.4999999 L11.312,15.4999999 Z" id="Path" stroke="#844C22"></path>
            </g>
            <path d="M1,18 C1,22.97 6.149,27 12.5,27 C18.851,27 24,22.97 24,18 L1,18 Z" id="Path" fill="#FFFFFF" fill-rule="nonzero" opacity="0.209"></path>
            <line x1="3" y1="20.5" x2="32" y2="20.5" id="Path" stroke="#844C22" stroke-linecap="round" stroke-linejoin="round"></line>
            <path d="M13,10 L13,4.828 C13.1982479,3.84221802 14.0203812,3.10366932 15.0216985,3.01184345 C16.0230159,2.92001758 16.9657642,3.49671768 17.34,4.43 L17.5,4.828 L18.547,4.828 C19.809,4.828 21.031,5.271 22,6.078 C22.95,6.87 23.5,8.044 23.5,9.281 L23.5,9.328 L26.5,9.328 C27.0522847,9.328 27.5,9.77571525 27.5,10.328 L27.5,13 L31.5,13 C32.0522847,13 32.5,13.4477153 32.5,14 L32.5,17 L3,17 L3,14 C3,13.4477153 3.44771525,13 4,13 L7.5,13 L7.5,11 C7.5,10.4477153 7.94771525,10 8.5,10 L13,10 Z" id="Path" stroke="#844C22" fill="#FBC889" fill-rule="nonzero"></path>
            <path d="M6.563,17 C6.604,14.714 7.417,13.571 9,13.571 C10.04,13.571 8.498,13.802 11.5,13 C12.544,12.721 15.544,12.554 20.5,12.5 C21.833,12.5 22.5,12 22.5,11 C22.5,10 21.833,9.5 20.5,9.5 C18.833,9.833 18,9.333 18,8 C18,6.667 19.5,6.333 22.5,7 L21,5.5 C18,4.167 15.833,3.5 14.5,3.5 C13.167,3.5 12.833,5.648 13.5,9.945 L8,9.945 L6.562,13.571 L3.5,13.5 L3,17 L6.563,17 Z" id="Path" fill="#F6E7B5" fill-rule="nonzero"></path>
            <path d="M3,17.5 L3,14 C3,13.4477153 3.44771525,13 4,13 L7.5,13 L7.5,11 C7.5,10.4477153 7.94771525,10 8.5,10 L16,10" id="Path" stroke="#844C22" stroke-linecap="round" stroke-linejoin="round"></path>
            <path d="M13,10 L13,4.828 C13.1982479,3.84221802 14.0203812,3.10366932 15.0216985,3.01184345 C16.0230159,2.92001758 16.9657642,3.49671768 17.34,4.43 L17.5,4.828 L18.547,4.828 C19.809,4.828 21.031,5.271 22,6.078 C22.95,6.87 23.5,8.044 23.5,9.281 L23.5,9.328 L26.5,9.328 C27.0522847,9.328 27.5,9.77571525 27.5,10.328 L27.5,13 L31.5,13 C32.0522847,13 32.5,13.4477153 32.5,14 L32.5,17" id="Path" stroke="#844C22"></path>
            <path d="M11,13 L15.5,13 M21,13 L31,13" id="Shape" stroke="#844C22" stroke-linecap="round" stroke-linejoin="round"></path>
            <path d="M4,16.5 L4,14 L6,14 M8.5,12.5 L8.5,11 L12,11" id="Shape" stroke="#FFFFFF" stroke-linecap="round" stroke-linejoin="round"></path>
            <path d="M14,9.5 L14,5 C14.212,4.333 14.628,4 15.25,4 C15.872,4 16.455,4.5 17,5.5" id="Path" stroke="#FFFFFF"></path>
        </g>
    </g>
</svg>