<?xml version="1.0" encoding="UTF-8"?>
<svg width="50px" height="27px" viewBox="0 0 50 27" version="1.1" xmlns="http://www.w3.org/2000/svg" xmlns:xlink="http://www.w3.org/1999/xlink">
    <!-- Generator: Sketch 64 (93537) - https://sketch.com -->
    <title>dessert</title>
    <desc>Created with Sketch.</desc>
    <g id="Page-1" stroke="none" stroke-width="1" fill="none" fill-rule="evenodd">
        <g id="dessert">
            <g id="Group">
                <ellipse id="Oval" fill-opacity="0.277" fill="#844C22" fill-rule="nonzero" cx="25" cy="24" rx="25" ry="3"></ellipse>
                <g transform="translate(3.000000, 0.000000)" fill-rule="nonzero">
                    <polygon id="b" stroke="#844C22" fill="#F6E7B5" stroke-linecap="round" stroke-linejoin="round" points="1 12.5 12.534 1 42 11.679 42 24 1 24"></polygon>
                    <polygon id="Path" stroke="#844C22" fill="#D4162D" stroke-linecap="round" stroke-linejoin="round" points="1 12 12.43 0.93 42 12"></polygon>
                    <polygon id="Path" fill="#F8BAC1" points="2 19 42 19 42 24 2 24"></polygon>
                    <path d="M40.327,20.178 C40.037,20.37 39.094,21.072 38.845,21.229 C38.085,21.709 37.33,21.924 36.29,21.929 C34.704,21.935 33.723,21.539 32.207,20.565 L32.068,20.475 C30.9,19.724 30.342,19.5 29.308,19.5 C28.338,19.5 27.989,19.664 27.12,20.375 C25.757,21.49 24.805,21.935 23.008,21.928 C21.258,21.922 20.27,21.503 18.751,20.445 L18.71,20.416 C17.669,19.691 17.219,19.5 16.253,19.5 C15.243,19.5 14.693,19.72 13.471,20.485 L13.4,20.53 C11.804,21.53 10.83,21.922 9.218,21.928 C7.516,21.935 6.251,21.456 4.712,20.478 C4.577,20.392 4.067,20.06 3.947,19.984 C3.75899164,19.86167 3.56436105,19.7498326 3.364,19.649 C3.161,19.551 3.011,19.505 2.89,19.496 L3.11,16.504 C3.647,16.544 4.153,16.697 4.674,16.95 C4.951,17.084 5.221,17.24 5.55,17.448 L6.32,17.945 C7.42,18.644 8.181,18.932 9.206,18.928 C10.126,18.925 10.646,18.715 11.807,17.988 L11.878,17.943 C13.537,16.904 14.549,16.5 16.253,16.5 C17.959,16.5 18.926,16.911 20.424,17.954 L20.466,17.984 C21.53,18.724 22.002,18.924 23.019,18.928 C23.996,18.932 24.346,18.768 25.218,18.055 C26.576,16.945 27.523,16.5 29.308,16.5 C31.041,16.5 32.083,16.917 33.692,17.953 L33.83,18.042 C34.902,18.731 35.4,18.932 36.278,18.928 C36.76,18.926 36.965,18.868 37.244,18.692 C37.37,18.612 38.279,17.936 38.673,17.675 C39.812,16.922 40.909,16.515 41.978,16.5 L42.5,16.478 L42.5,23.5 C42.5,24.0522847 42.0522847,24.5 41.5,24.5 L1.5,24.5 C0.94771525,24.5 0.5,24.0522847 0.5,23.5 L0.5,18 L2.5,18 L2.5,22.5 L40.5,22.5 L40.5,20.067 C40.4418052,20.1031703 40.3841326,20.1401741 40.327,20.178 L40.327,20.178 Z" id="Path" fill="#F8BAC1"></path>
                    <path d="M39.776,19.344 C39.451,19.558 38.519,20.252 38.311,20.384 C37.711,20.762 37.14,20.925 36.286,20.928 C34.936,20.934 34.116,20.604 32.748,19.724 L32.61,19.634 C31.294,18.788 30.575,18.5 29.309,18.5 C28.067,18.5 27.519,18.757 26.487,19.601 C25.287,20.583 24.536,20.934 23.012,20.928 C21.506,20.923 20.69,20.577 19.322,19.624 L19.282,19.595 C18.088,18.765 17.465,18.5 16.252,18.5 C15.012,18.5 14.308,18.781 12.94,19.638 L12.869,19.683 C11.418,20.591 10.595,20.923 9.214,20.928 C7.738,20.934 6.641,20.518 5.248,19.633 C5.12,19.553 4.608,19.219 4.481,19.139 C4.2618125,18.9963735 4.03478842,18.8661685 3.801,18.749 C3.492,18.599 3.223,18.518 2.963,18.499 L3.037,17.501 C3.435,17.531 3.823,17.648 4.237,17.85 C4.475,17.965 4.715,18.104 5.015,18.293 C5.15,18.378 5.663,18.713 5.785,18.789 C7.03,19.581 7.959,19.933 9.21,19.929 C10.36,19.924 11.032,19.653 12.338,18.835 L12.409,18.79 C13.922,17.843 14.781,17.5 16.253,17.5 C17.713,17.5 18.507,17.838 19.853,18.775 L19.894,18.804 C21.11,19.651 21.754,19.924 23.015,19.928 C24.266,19.933 24.816,19.676 25.851,18.829 C27.047,17.851 27.795,17.5 29.309,17.5 C30.808,17.5 31.689,17.853 33.151,18.794 L33.289,18.883 C34.509,19.667 35.169,19.933 36.282,19.928 C36.95,19.926 37.338,19.815 37.777,19.538 C37.945,19.432 38.865,18.747 39.224,18.51 C40.216,17.854 41.138,17.512 41.993,17.5 L41.5,17.493 L41.5,24.5 L1.5,24.5 L1.5,18 L1.5,23.5 L41.5,23.5 L41.5,18.559 C40.982,18.667 40.407,18.927 39.776,19.344 L39.776,19.344 Z" id="Path" fill="#FFFFFF"></path>
                    <polyline id="Path" stroke="#844C22" fill="#FFB46B" points="42 15 42 12 2 12 2 15"></polyline>
                </g>
                <polygon id="Path" stroke="#844C22" stroke-linecap="round" stroke-linejoin="round" points="4 12.054 15.534 1 45 11.679 45 24 4 24"></polygon>
                <circle id="Oval" stroke="#844C22" fill="#FBC889" fill-rule="nonzero" cx="22" cy="4" r="3"></circle>
                <circle id="Oval" fill="#FFFFFF" fill-rule="nonzero" cx="21" cy="3" r="1"></circle>
                <line x1="16" y1="2" x2="7" y2="11" id="Path" stroke="#FFFFFF" stroke-linecap="round" stroke-linejoin="round"></line>
                <line x1="5.5" y1="12.5" x2="5.5" y2="23.5" id="Path" stroke="#F6E7B5" stroke-width="2"></line>
            </g>
        </g>
    </g>
</svg>