<?xml version="1.0" encoding="UTF-8"?>
<svg width="47px" height="42px" viewBox="0 0 47 42" version="1.1" xmlns="http://www.w3.org/2000/svg" xmlns:xlink="http://www.w3.org/1999/xlink">
    <!-- Generator: Sketch 64 (93537) - https://sketch.com -->
    <title>Path</title>
    <desc>Created with Sketch.</desc>
    <g id="Page-1" stroke="none" stroke-width="1" fill="none" fill-rule="evenodd">
        <g id="combobox" transform="translate(0.000000, -7.000000)">
            <polygon id="Path" points="0 7 47 7 47 49 0 49"></polygon>
            <ellipse id="Oval" fill-opacity="0.2" fill="#844C22" fill-rule="nonzero" cx="23.5" cy="48" rx="22.5" ry="3"></ellipse>
            <g id="b-link" stroke-linecap="round" stroke-linejoin="round" transform="translate(28.440277, 20.129927) rotate(35.000000) translate(-28.440277, -20.129927) translate(12.940277, 6.629927)" fill="#ADCC7D" fill-rule="nonzero" stroke="#844C22">
                <path d="M9.591,24.623 L8.556,25.679 C7.404,26.101 6.303,26.101 5.252,25.679 C3.677,25.046 3.677,23.781 3.677,22.515 C3.677,21.671 3.151,21.038 2.101,20.617 C0.7,20.617 0,19.773 0,18.085 C0,16.398 0.875,15.132 2.626,14.289 C2.526,13.234 2.658,12.642 3.093,12.517 L4.493,12.114 C3.093,9.696 2.918,8.084 3.967,7.278 C5.017,6.472 7.175,6.27 10.441,6.673 C10.324,6.136 10.616,5.666 11.316,5.263 C12.016,4.86 12.891,4.725 13.94,4.86 C13.94,2.576 14.582,1.3 15.865,1.031 C17.148,0.762 17.375,1.797 18.658,5.021 C20.328,5.879 21.722,5.012 22.305,5.147 C22.888,5.281 22.688,6.539 23.038,7.479 C24.438,7.076 21.168,10.277 21.868,10.68 C22.568,11.083 25.39,9.495 25.39,10.838 L27.062,12.92 C27.879,13.188 26.2,15.586 26.432,16.124 C26.666,16.661 28.654,15.564 27.989,16.82 L27.915,16.885 C28.168,16.842 28.371,16.82 28.525,16.82 C29.412,16.82 30.09,17.453 30.09,19.351 C30.09,20.617 29.568,21.376 28.524,21.628 C27.824,21.628 27.124,21.762 26.424,22.031 C25.375,22.434 26.059,23.651 24.5,24.449 C22.942,25.247 21.884,24.449 21.009,24.449 C20.426,24.449 19.956,25.188 19.601,26.665 L13.131,26.665 C12.546,25.523 11.845,24.785 11.028,24.449 C10.552,24.253 10.073,24.311 9.591,24.623 Z" id="b"></path>
            </g>
            <path d="M2.175,26.333 C3.308,22.487 6.158,18.779 10.726,15.21 C15.294,11.641 19.491,9.658 23.318,9.26 L23.832,9.485 C24.4439292,9.75381664 24.8869002,10.3034361 25.0195848,10.9585044 C25.1522695,11.6135727 24.9580905,12.2922474 24.499,12.778 C20.287,13.478 16.415,15.208 12.881,17.968 C9.347,20.729 6.821,24.183 5.303,28.33 C4.63398536,28.588698 3.88261523,28.5207585 3.27085552,28.1462517 C2.65909581,27.771745 2.25686942,27.1334764 2.183,26.42 L2.175,26.333 L2.175,26.333 Z" id="Path" stroke="#844C22" fill="#F6E7B5" fill-rule="nonzero" stroke-linecap="round" stroke-linejoin="round"></path>
            <path d="M2.839,26.97 C4.311,22.934 7.109,19.305 11.237,16.08 C15.363,12.856 19.682,10.971 24.193,10.424 C24.563,10.69 24.713,11.168 24.563,11.598 L24.336,12.25 C19.343,13.167 15.25,14.873 12.058,17.368 C8.865,19.862 6.158,23.395 3.937,27.968 C3.437,27.875 3.027,27.52 2.863,27.039 L2.839,26.97 Z" id="Path" fill="#FFB46B" fill-rule="nonzero"></path>
            <path d="M28.458,40.696 L4.364,28.102 C6.317,23.834 8.934,20.417 12.218,17.852 C15.501,15.286 19.762,13.536 25,12.6 L30.072,39.435 L28.458,40.696 L28.458,40.696 Z" id="Path" stroke="#844C22" fill="#F83825" fill-rule="nonzero" stroke-linecap="round" stroke-linejoin="round"></path>
            <path d="M28.796,40.432 L8.646,30.334 C7.823,24.516 9.145,20.253 12.612,17.544 C16.079,14.835 20.485,14.599 25.828,16.834 L30.501,39.1 L28.796,40.432 Z" id="Path" stroke="#844C22" fill="#FFFFFF" fill-rule="nonzero" stroke-linecap="round" stroke-linejoin="round"></path>
            <path d="M29.407,39.43 L10,29.176 C9.421,24.326 10.616,20.74 13.585,18.421 C16.553,16.102 20.558,16.02 25.6,18.174 L30.082,38.828 L29.407,39.43 L29.407,39.43 Z" id="Path" fill="#F6E7B5" fill-rule="nonzero"></path>
            <path d="M27.68,41.222 L28.83,40.68 L34.865,33.3 C28.352,31.183 25.231,29.5 25.5,28.25 C25.905,26.378 26.186,22.707 24.622,22.072 C23.058,21.438 19.09,23.365 20.265,26.087 C21.44,28.807 25.722,34.254 24.885,35.288 C24.047,36.323 17.138,34.888 17.188,32.201 C17.238,29.515 14.748,26.841 13.441,27.234 C12.57,27.496 12.214,28.682 12.373,30.792 L27.68,41.222 L27.68,41.222 Z" id="Path" fill="#FFB46B" fill-rule="nonzero"></path>
            <path d="M17.107,22.817 C15.754,23.088 14.128,21.562 14.922,19.511 C15.715,17.461 17.727,16.243 20.549,17.432 C22.43,18.225 24.153,18.598 25.717,18.552 L26.473,22.085 C23.087,19.871 20.913,18.837 19.95,18.982 C18.506,19.199 18.46,22.546 17.107,22.817 Z" id="Path" fill="#FFB46B" fill-rule="nonzero"></path>
            <g id="Group" transform="translate(14.213508, 27.714259) rotate(142.000000) translate(-14.213508, -27.714259) translate(11.213508, 24.714259)" fill-rule="nonzero">
                <g>
                    <circle id="Oval" stroke="#844C22" fill="#E2475A" cx="2.844" cy="2.844" r="2.844"></circle>
                    <path d="M2.546,5.246 C3.436,5.51 5.17,4.724 5.279,3.039 C5.33731357,2.31034164 5.06546219,1.59398938 4.53840783,1.08747464 C4.01135347,0.580959899 3.28476631,0.337783349 2.559,0.425 C4.017,0.97 4.708,1.84 4.633,3.031 C4.557,4.224 3.861,4.962 2.545,5.246 L2.546,5.246 Z" id="Path" fill="#EE8E9A"></path>
                </g>
                <circle id="Oval" fill="#EE8E9A" cx="2.031" cy="2.031" r="1"></circle>
                <circle id="Oval" fill="#EE8E9A" cx="3.656" cy="2.844" r="1"></circle>
                <circle id="Oval" fill="#EE8E9A" cx="2.031" cy="3.656" r="1"></circle>
            </g>
            <g id="Group" transform="translate(21.674707, 30.767162) rotate(142.000000) translate(-21.674707, -30.767162) translate(18.674707, 27.767162)" fill-rule="nonzero">
                <g>
                    <circle id="Oval" stroke="#844C22" fill="#E2475A" cx="2.844" cy="2.844" r="2.844"></circle>
                    <path d="M2.546,5.246 C3.436,5.51 5.17,4.724 5.279,3.039 C5.33731357,2.31034164 5.06546219,1.59398938 4.53840783,1.08747464 C4.01135347,0.580959899 3.28476631,0.337783349 2.559,0.425 C4.017,0.97 4.708,1.84 4.633,3.031 C4.557,4.224 3.861,4.962 2.545,5.246 L2.546,5.246 Z" id="Path" fill="#EE8E9A"></path>
                </g>
                <circle id="Oval" fill="#EE8E9A" cx="2.031" cy="2.031" r="1"></circle>
                <circle id="Oval" fill="#EE8E9A" cx="3.656" cy="2.844" r="1"></circle>
                <circle id="Oval" fill="#EE8E9A" cx="2.031" cy="3.656" r="1"></circle>
            </g>
            <g id="Group" transform="translate(21.920650, 22.960477) rotate(142.000000) translate(-21.920650, -22.960477) translate(18.920650, 19.960477)" fill-rule="nonzero">
                <g>
                    <circle id="Oval" stroke="#844C22" fill="#E2475A" cx="2.844" cy="2.844" r="2.844"></circle>
                    <path d="M2.546,5.246 C3.436,5.51 5.17,4.724 5.279,3.039 C5.33731357,2.31034164 5.06546219,1.59398938 4.53840783,1.08747464 C4.01135347,0.580959899 3.28476631,0.337783349 2.559,0.425 C4.017,0.97 4.708,1.84 4.633,3.031 C4.557,4.224 3.861,4.962 2.545,5.246 L2.546,5.246 Z" id="Path" fill="#EE8E9A"></path>
                </g>
                <circle id="Oval" fill="#EE8E9A" cx="2.031" cy="2.031" r="1"></circle>
                <circle id="Oval" fill="#EE8E9A" cx="3.656" cy="2.844" r="1"></circle>
                <circle id="Oval" fill="#EE8E9A" cx="2.031" cy="3.656" r="1"></circle>
            </g>
            <g id="Group" transform="translate(36.070959, 23.742494) rotate(-59.000000) translate(-36.070959, -23.742494) translate(21.570959, 18.242494)" fill-rule="nonzero">
                <path d="M25.535,4.333 C25.697,3.573 26.403,3 27.25,3 C28.216,3 29,3.746 29,4.667 C28.9964672,5.19851501 28.7355604,5.69535616 28.3,6 C28.725,6.304 29,6.788 29,7.333 C29,8.253 28.216,9 27.25,9 C26.33,9 25.577,8.325 25.506,7.466 L15,7.466 L15,4.333 L25.535,4.333 Z" id="Path" stroke="#8B572A" fill="#FBF4DE"></path>
                <path d="M8.815,11 C13.684,11 20,7.635 20,5.5 C20,3.365 13.684,0 8.815,0 C3.947,0 0,2.462 0,5.5 C0,8.538 3.947,11 8.815,11 Z" id="Path" stroke="#8B572A" fill="#FFB46B"></path>
                <ellipse id="Oval" fill="#FFFFFF" opacity="0.388" cx="8.5" cy="5.5" rx="5.5" ry="2.5"></ellipse>
            </g>
            <polygon id="Path" stroke="#8B572A" fill="#F9D8A0" fill-rule="nonzero" stroke-linecap="round" stroke-linejoin="round" points="7.23 32.772 38.702 32.097 38.67 48.3 7.2 48.376"></polygon>
            <polygon id="Path" stroke="#944923" fill="#FFFFFF" fill-rule="nonzero" stroke-linecap="round" stroke-linejoin="round" points="1.514 32.652 4.063 29.943 41.881 29.843 44.021 32.276"></polygon>
        </g>
    </g>
</svg>